{
	"asset":{
		"generator":"Khronos glTF Blender I/O v4.4.56",
		"version":"2.0"
	},
	"scene":0,
	"scenes":[
		{
			"extras":{
				"DocProperties":{
					"should_draw_decorations":0
				},
				"BIMProperties":{
					"ifc_file":"C:/Users/mario.coelho/OneDrive - Instituto CCG ZGDV/Ambiente de Trabalho/casa.ifc",
					"area_unit":5,
					"volume_unit":5,
					"is_dirty":1,
					"last_transaction":"270da939-c362-4eb6-98f5-edcd489764ffEditPset"
				},
				"BIMGeoreferenceProperties":{
					"model_origin":"0,0,0",
					"model_origin_si":"0,0,0",
					"model_project_north":"0"
				},
				"BIMAggregateProperties":{},
				"BIMNestProperties":{},
				"BIMModelProperties":{
					"extrusion_depth":3.0,
					"length":1.0,
					"rl1":0.0,
					"rl2":1.0,
					"x":0.5,
					"y":0.5,
					"z":0.5
				},
				"WebProperties":{},
				"BIMProjectProperties":{
					"is_loading":0,
					"total_elements":13,
					"use_relative_project_path":0
				},
				"BIMSystemProperties":{},
				"DiffProperties":{},
				"BIMSpatialDecompositionProperties":{
					"containers":[
						{
							"ifc_class":"IfcProject",
							"name":"My Project",
							"description":"",
							"long_name":"",
							"is_expanded":1,
							"level_index":0,
							"has_children":1,
							"ifc_definition_id":1
						},
						{
							"ifc_class":"IfcSite",
							"name":"My Site",
							"description":"",
							"long_name":"",
							"elevation":"0.0",
							"is_expanded":1,
							"level_index":1,
							"has_children":1,
							"ifc_definition_id":31
						},
						{
							"ifc_class":"IfcBuilding",
							"name":"My Building",
							"description":"",
							"long_name":"",
							"elevation":"0.0",
							"is_expanded":1,
							"level_index":2,
							"has_children":1,
							"ifc_definition_id":37
						},
						{
							"ifc_class":"IfcBuildingStorey",
							"name":"-1",
							"description":"",
							"long_name":"",
							"elevation":"-1.0",
							"is_expanded":1,
							"level_index":3,
							"has_children":0,
							"ifc_definition_id":67
						},
						{
							"ifc_class":"IfcBuildingStorey",
							"name":"0",
							"description":"",
							"long_name":"",
							"elevation":"0.0",
							"is_expanded":1,
							"level_index":3,
							"has_children":0,
							"ifc_definition_id":43
						},
						{
							"ifc_class":"IfcBuildingStorey",
							"name":"1",
							"description":"",
							"long_name":"",
							"elevation":"3.0",
							"is_expanded":1,
							"level_index":3,
							"has_children":0,
							"ifc_definition_id":96
						}
					],
					"active_container_index":0,
					"elements":[
						{
							"name":"IfcBeam",
							"type":0,
							"has_children":1,
							"is_expanded":0,
							"total":4
						},
						{
							"name":"IfcColumn",
							"type":0,
							"has_children":1,
							"is_expanded":0,
							"total":4
						},
						{
							"name":"IfcFooting",
							"type":0,
							"has_children":1,
							"is_expanded":0,
							"total":4
						},
						{
							"name":"IfcSlab",
							"type":0,
							"has_children":1,
							"is_expanded":0,
							"total":1
						}
					],
					"total_elements":13,
					"default_container":96
				},
				"BIMRootProperties":{
					"contexts":2
				},
				"BIMGridProperties":{},
				"BIMGeometryProperties":{
					"representation_obj":{}
				},
				"BIMSearchProperties":{},
				"BIMMaterialProperties":{},
				"BIMStylesProperties":{},
				"BIMProfileProperties":{},
				"GlobalPsetProperties":{},
				"BIMBSDDProperties":{},
				"BIMQtoProperties":{}
			},
			"name":"Scene",
			"nodes":[
				0,
				1,
				2,
				3,
				4,
				5,
				6,
				7,
				8,
				9,
				10,
				11,
				12,
				13,
				14,
				15,
				16,
				17,
				18,
				19,
				20,
				21,
				22
			]
		}
	],
	"nodes":[
		{
			"extras":{
				"BIMObjectProperties":{
					"ifc_definition_id":1,
					"collection":{
						"name":"IfcProject/My Project",
						"type":"Collection"
					}
				}
			},
			"name":"IfcProject/My Project"
		},
		{
			"extras":{
				"BIMObjectProperties":{
					"ifc_definition_id":67,
					"location_checksum":"b'\\x00\\x00\\x00\\x00\\x00\\x00\\x00\\x00\\x00\\x00\\x00\\x00\\x00\\x00\\x00\\x00\\x00\\x00\\x00\\x00\\x00\\x00\\xf0\\xbf'",
					"rotation_checksum":"b'\\x00\\x00\\x00\\x00\\x00\\x00\\xf0?\\x00\\x00\\x00\\x00\\x00\\x00\\x00\\x00\\x00\\x00\\x00\\x00\\x00\\x00\\x00\\x00\\x00\\x00\\x00\\x00\\x00\\x00\\x00\\x00\\x00\\x00\\x00\\x00\\x00\\x00\\xf0?\\x00\\x00\\x00\\x00\\x00\\x00\\x00\\x00\\x00\\x00\\x00\\x00\\x00\\x00\\x00\\x00\\x00\\x00\\x00\\x00\\x00\\x00\\x00\\x00\\x00\\x00\\x00\\x00\\x00\\x00\\xf0?'",
					"collection":{
						"name":"IfcBuildingStorey/-1",
						"type":"Collection"
					}
				}
			},
			"name":"IfcBuildingStorey/-1",
			"translation":[
				0,
				-1,
				0
			]
		},
		{
			"extras":{
				"BIMObjectProperties":{
					"ifc_definition_id":303,
					"location_checksum":"b'\\x00\\x00\\x00 \\x00\\x00\\xe0?\\x00\\x00\\x00\\x00\\x00\\x00\\x12@\\x00\\x00\\x00\\x00\\x00\\x00\\xf0\\xbf'",
					"rotation_checksum":"b'\\x00\\x00\\x00\\x00\\x00\\x00\\xf0?\\x00\\x00\\x00\\x00\\x00\\x00\\x00\\x00\\x00\\x00\\x00\\x00\\x00\\x00\\x00\\x00\\x00\\x00\\x00\\x00\\x00\\x00\\x00\\x00\\x00\\x00\\x00\\x00\\x00\\x00\\xf0?\\x00\\x00\\x00\\x00\\x00\\x00\\x00\\x00\\x00\\x00\\x00\\x00\\x00\\x00\\x00\\x00\\x00\\x00\\x00\\x00\\x00\\x00\\x00\\x00\\x00\\x00\\x00\\x00\\x00\\x00\\xf0?'"
				}
			},
			"mesh":0,
			"name":"IfcColumn/Column",
			"translation":[
				0.5000000596046448,
				-1,
				-4.5
			]
		},
		{
			"extras":{
				"BIMObjectProperties":{
					"ifc_definition_id":136,
					"location_checksum":"b'\\x00\\x00\\x00\\x00\\x00\\x00\\x00\\x00\\x00\\x00\\x00\\x00\\x00\\x00\\x00\\x00\\x00\\x00\\x00\\x00\\x00\\x00\\xf0\\xbf'",
					"rotation_checksum":"b'\\x00\\x00\\x00\\x00\\x00\\x00\\xf0?\\x00\\x00\\x00\\x00\\x00\\x00\\x00\\x00\\x00\\x00\\x00\\x00\\x00\\x00\\x00\\x00\\x00\\x00\\x00\\x00\\x00\\x00\\x00\\x00\\x00\\x00\\x00\\x00\\x00\\x00\\xf0?\\x00\\x00\\x00\\x00\\x00\\x00\\x00\\x00\\x00\\x00\\x00\\x00\\x00\\x00\\x00\\x00\\x00\\x00\\x00\\x00\\x00\\x00\\x00\\x00\\x00\\x00\\x00\\x00\\x00\\x00\\xf0?'"
				}
			},
			"mesh":1,
			"name":"IfcFooting/Footing",
			"translation":[
				0,
				-1,
				0
			]
		},
		{
			"extras":{
				"BIMObjectProperties":{
					"ifc_definition_id":182,
					"location_checksum":"b'\\x00\\x00\\x00\\x00\\x00\\x00\\x00\\x00\\x00\\x00\\x00\\x00\\x00\\x00\\x10@\\x00\\x00\\x00\\x00\\x00\\x00\\xf0\\xbf'",
					"rotation_checksum":"b'\\x00\\x00\\x00\\x00\\x00\\x00\\xf0?\\x00\\x00\\x00\\x00\\x00\\x00\\x00\\x00\\x00\\x00\\x00\\x00\\x00\\x00\\x00\\x00\\x00\\x00\\x00\\x00\\x00\\x00\\x00\\x00\\x00\\x00\\x00\\x00\\x00\\x00\\xf0?\\x00\\x00\\x00\\x00\\x00\\x00\\x00\\x00\\x00\\x00\\x00\\x00\\x00\\x00\\x00\\x00\\x00\\x00\\x00\\x00\\x00\\x00\\x00\\x00\\x00\\x00\\x00\\x00\\x00\\x00\\xf0?'"
				}
			},
			"mesh":2,
			"name":"IfcFooting/Footing.001",
			"translation":[
				0,
				-1,
				-4
			]
		},
		{
			"extras":{
				"BIMObjectProperties":{
					"ifc_definition_id":204,
					"location_checksum":"b'\\x00\\x00\\x00\\x00\\x00\\x00\\x10@\\x00\\x00\\x00\\x00\\x00\\x00\\x00\\x00\\x00\\x00\\x00\\x00\\x00\\x00\\xf0\\xbf'",
					"rotation_checksum":"b'\\x00\\x00\\x00\\x00\\x00\\x00\\xf0?\\x00\\x00\\x00\\x00\\x00\\x00\\x00\\x00\\x00\\x00\\x00\\x00\\x00\\x00\\x00\\x00\\x00\\x00\\x00\\x00\\x00\\x00\\x00\\x00\\x00\\x00\\x00\\x00\\x00\\x00\\xf0?\\x00\\x00\\x00\\x00\\x00\\x00\\x00\\x00\\x00\\x00\\x00\\x00\\x00\\x00\\x00\\x00\\x00\\x00\\x00\\x00\\x00\\x00\\x00\\x00\\x00\\x00\\x00\\x00\\x00\\x00\\xf0?'"
				}
			},
			"mesh":3,
			"name":"IfcFooting/Footing.002",
			"translation":[
				4,
				-1,
				0
			]
		},
		{
			"extras":{
				"BIMObjectProperties":{
					"ifc_definition_id":231,
					"location_checksum":"b'\\x00\\x00\\x00\\x00\\x00\\x00\\x10@\\x00\\x00\\x00\\x00\\x00\\x00\\x10@\\x00\\x00\\x00\\x00\\x00\\x00\\xf0\\xbf'",
					"rotation_checksum":"b'\\x00\\x00\\x00\\x00\\x00\\x00\\xf0?\\x00\\x00\\x00\\x00\\x00\\x00\\x00\\x00\\x00\\x00\\x00\\x00\\x00\\x00\\x00\\x00\\x00\\x00\\x00\\x00\\x00\\x00\\x00\\x00\\x00\\x00\\x00\\x00\\x00\\x00\\xf0?\\x00\\x00\\x00\\x00\\x00\\x00\\x00\\x00\\x00\\x00\\x00\\x00\\x00\\x00\\x00\\x00\\x00\\x00\\x00\\x00\\x00\\x00\\x00\\x00\\x00\\x00\\x00\\x00\\x00\\x00\\xf0?'"
				}
			},
			"mesh":4,
			"name":"IfcFooting/Footing.003",
			"translation":[
				4,
				-1,
				-4
			]
		},
		{
			"extras":{
				"BIMObjectProperties":{
					"ifc_definition_id":473,
					"location_checksum":"b'\\x00\\x00\\x00\\xa0\\x99\\x99\\x11@\\x00\\x00\\x00\\x00\\x00\\x00\\x12@\\x00\\x00\\x00\\x00\\x00\\x00\\x00\\x00'",
					"rotation_checksum":"b'\\x00\\x00\\x00\\x80\\x16\"\\x8a>\\x00\\x00\\x00@\\x16\"\\x8a>\\x00\\x00\\x00\\x00\\x00\\x00\\xf0\\xbf\\x00\\x00\\x00\\x00\\x00\\x00\\xf0\\xbf\\x00\\x00\\x00`\\x00\\x00\\x80>\\x00\\x00\\x00`\\x16\"\\x8a\\xbe\\x00\\x00\\x00\\x00\\x00\\x00\\x80>\\x00\\x00\\x00\\x00\\x00\\x00\\xf0?\\x00\\x00\\x00\\x80\\x16\"\\x8a>'"
				}
			},
			"mesh":5,
			"name":"IfcBeam/Beam",
			"rotation":[
				0.5,
				-0.5,
				0.4999999403953552,
				0.5000000596046448
			],
			"translation":[
				4.400000095367432,
				0,
				-4.5
			]
		},
		{
			"extras":{
				"BIMObjectProperties":{
					"ifc_definition_id":325,
					"location_checksum":"b'\\x00\\x00\\x00\\x00\\x00\\x00\\x12@\\x00\\x00\\x00\\x00\\x00\\x00\\x12@\\x00\\x00\\x00\\x00\\x00\\x00\\xf0\\xbf'",
					"rotation_checksum":"b'\\x00\\x00\\x00\\x00\\x00\\x00\\xf0?\\x00\\x00\\x00\\x00\\x00\\x00\\x00\\x00\\x00\\x00\\x00\\x00\\x00\\x00\\x00\\x00\\x00\\x00\\x00\\x00\\x00\\x00\\x00\\x00\\x00\\x00\\x00\\x00\\x00\\x00\\xf0?\\x00\\x00\\x00\\x00\\x00\\x00\\x00\\x00\\x00\\x00\\x00\\x00\\x00\\x00\\x00\\x00\\x00\\x00\\x00\\x00\\x00\\x00\\x00\\x00\\x00\\x00\\x00\\x00\\x00\\x00\\xf0?'"
				}
			},
			"mesh":6,
			"name":"IfcColumn/Column.001",
			"translation":[
				4.5,
				-1,
				-4.5
			]
		},
		{
			"extras":{
				"BIMObjectProperties":{
					"ifc_definition_id":347,
					"location_checksum":"b'\\x00\\x00\\x00\\x00\\x00\\x00\\x12@\\x00\\x00\\x00\\xe0\\xff\\xff\\xdf?\\x00\\x00\\x00\\x00\\x00\\x00\\xf0\\xbf'",
					"rotation_checksum":"b'\\x00\\x00\\x00\\x00\\x00\\x00\\xf0?\\x00\\x00\\x00\\x00\\x00\\x00\\x00\\x00\\x00\\x00\\x00\\x00\\x00\\x00\\x00\\x00\\x00\\x00\\x00\\x00\\x00\\x00\\x00\\x00\\x00\\x00\\x00\\x00\\x00\\x00\\xf0?\\x00\\x00\\x00\\x00\\x00\\x00\\x00\\x00\\x00\\x00\\x00\\x00\\x00\\x00\\x00\\x00\\x00\\x00\\x00\\x00\\x00\\x00\\x00\\x00\\x00\\x00\\x00\\x00\\x00\\x00\\xf0?'"
				}
			},
			"mesh":7,
			"name":"IfcColumn/Column.002",
			"translation":[
				4.5,
				-1,
				-0.4999999701976776
			]
		},
		{
			"extras":{
				"BIMObjectProperties":{
					"ifc_definition_id":369,
					"location_checksum":"b'\\x00\\x00\\x00 \\x00\\x00\\xe0?\\x00\\x00\\x00\\xe0\\xff\\xff\\xdf?\\x00\\x00\\x00\\x00\\x00\\x00\\xf0\\xbf'",
					"rotation_checksum":"b'\\x00\\x00\\x00\\x00\\x00\\x00\\xf0?\\x00\\x00\\x00\\x00\\x00\\x00\\x00\\x00\\x00\\x00\\x00\\x00\\x00\\x00\\x00\\x00\\x00\\x00\\x00\\x00\\x00\\x00\\x00\\x00\\x00\\x00\\x00\\x00\\x00\\x00\\xf0?\\x00\\x00\\x00\\x00\\x00\\x00\\x00\\x00\\x00\\x00\\x00\\x00\\x00\\x00\\x00\\x00\\x00\\x00\\x00\\x00\\x00\\x00\\x00\\x00\\x00\\x00\\x00\\x00\\x00\\x00\\xf0?'"
				}
			},
			"mesh":8,
			"name":"IfcColumn/Column.003",
			"translation":[
				0.5000000596046448,
				-1,
				-0.4999999701976776
			]
		},
		{
			"extras":{
				"BIMObjectProperties":{
					"ifc_definition_id":396,
					"location_checksum":"b'\\x00\\x00\\x00 \\x00\\x00\\xe0?\\x00\\x00\\x00 33\\xe3?\\x00\\x00\\x00\\x00\\x00\\x00\\x00\\x00'",
					"rotation_checksum":"b'\\x00\\x00\\x00\\x00\\x00\\x00\\xf0\\xbf\\x00\\x00\\x00\\x00\\xa6ww>\\x00\\x00\\x00\\xc0\\xa5ww\\xbe\\x00\\x00\\x00\\xe0\\xa5ww\\xbe\\x00\\x00\\x00\\x00-Dt\\xbe\\x00\\x00\\x00\\x00\\x00\\x00\\xf0?\\x00\\x00\\x00\\xe0\\xa5ww>\\x00\\x00\\x00\\x00\\x00\\x00\\xf0?\\x00\\x00\\x00 -Dt>'"
				}
			},
			"mesh":9,
			"name":"IfcBeam/Beam.001",
			"rotation":[
				0,
				-0.7071068286895752,
				0.7071068286895752,
				8.42937097900176e-08
			],
			"translation":[
				0.5000000596046448,
				0,
				-0.5999999642372131
			]
		},
		{
			"extras":{
				"BIMObjectProperties":{
					"ifc_definition_id":419,
					"location_checksum":"b'\\x00\\x00\\x00`33\\xe3?\\x00\\x00\\x00\\xe0\\xff\\xff\\xdf?\\x00\\x00\\x00\\x00\\x00\\x00\\x00\\x00'",
					"rotation_checksum":"b'\\x00\\x00\\x00\\x80\\x16\"\\x8a>\\x00\\x00\\x00@\\x16\"\\x8a\\xbe\\x00\\x00\\x00\\x00\\x00\\x00\\xf0?\\x00\\x00\\x00\\x00\\x00\\x00\\xf0?\\x00\\x00\\x00`\\x00\\x00\\x80>\\x00\\x00\\x00`\\x16\"\\x8a\\xbe\\x00\\x00\\x00\\x00\\x00\\x00\\x80\\xbe\\x00\\x00\\x00\\x00\\x00\\x00\\xf0?\\x00\\x00\\x00\\x80\\x16\"\\x8a>'"
				}
			},
			"mesh":10,
			"name":"IfcBeam/Beam.002",
			"rotation":[
				0.5,
				0.5,
				-0.4999999403953552,
				0.5000000596046448
			],
			"translation":[
				0.6000000834465027,
				0,
				-0.4999999701976776
			]
		},
		{
			"extras":{
				"BIMObjectProperties":{
					"ifc_definition_id":441,
					"location_checksum":"b'\\x00\\x00\\x00\\x00\\x00\\x00\\x12@\\x00\\x00\\x00 33\\xe3?\\x00\\x00\\x00\\x00\\x00\\x00\\x00\\x00'",
					"rotation_checksum":"b'\\x00\\x00\\x00\\x00\\x00\\x00\\xf0\\xbf\\x00\\x00\\x00`\\xa6ww>\\x00\\x00\\x00\\xc0\\xa5ww\\xbe\\x00\\x00\\x00\\xe0\\xa5ww\\xbe\\x00\\x00\\x00\\x00-Dt\\xbe\\x00\\x00\\x00\\x00\\x00\\x00\\xf0?\\x00\\x00\\x00@\\xa6ww>\\x00\\x00\\x00\\x00\\x00\\x00\\xf0?\\x00\\x00\\x00 -Dt>'"
				},
				"BIMGeometryProperties":{},
				"BIMObjectMaterialProperties":{},
				"BIMAttributeProperties":{},
				"BIMTypeProperties":{},
				"BIMObjectSpatialProperties":{},
				"PsetProperties":{
					"pset_name":2,
					"properties":[
						{
							"name":"FireRating",
							"value_type":0,
							"metadata":{
								"name":"FireRating",
								"is_null":1,
								"is_optional":1,
								"data_type":0,
								"special_type":"",
								"string_value":"",
								"ifc_class":"Pset_BeamCommon",
								"description":"Fire rating for this object. It is given according to the national fire safety classification."
							}
						},
						{
							"name":"IsExternal",
							"value_type":0,
							"metadata":{
								"name":"IsExternal",
								"is_null":0,
								"is_optional":1,
								"data_type":3,
								"special_type":"",
								"bool_value":1,
								"ifc_class":"Pset_BeamCommon",
								"description":"Indication whether the element is designed for use in the exterior (TRUE) or not (FALSE). If (TRUE) it is an external element and faces the outside of the building."
							}
						},
						{
							"name":"LoadBearing",
							"value_type":0,
							"metadata":{
								"name":"LoadBearing",
								"is_null":1,
								"is_optional":1,
								"data_type":3,
								"special_type":"",
								"bool_value":0,
								"ifc_class":"Pset_BeamCommon",
								"description":"Indicates whether the object is intended to carry loads (TRUE) or not (FALSE)."
							}
						},
						{
							"name":"Reference",
							"value_type":0,
							"metadata":{
								"name":"Reference",
								"is_null":1,
								"is_optional":1,
								"data_type":0,
								"special_type":"",
								"string_value":"",
								"ifc_class":"Pset_BeamCommon",
								"description":"Reference ID for this specified type in this project (e.g. type 'A-1'), Also referred to as \"construction type\". It should be provided as an alternative to the name of the \"object type\", if the software does not support object types and no classification reference to a recognized classification system used.IFC4.3.0.0 DEPRECATION  The Reference property is deprecated and shall no longer be used, use attribute Name on the relating type instead."
							}
						},
						{
							"name":"Roll",
							"value_type":0,
							"metadata":{
								"name":"Roll",
								"is_null":1,
								"is_optional":1,
								"data_type":2,
								"special_type":"",
								"float_value":0.0,
								"ifc_class":"Pset_BeamCommon",
								"description":"Rotation against the longitudinal axis.  Relative to the global Z direction for all beams that are non-vertical in regard to the global coordinate system (Profile direction equals global Z is Roll = 0.)The shape information is provided in addition to the shape representation and the geometric parameters used within. In cases of inconsistency between the geometric parameters and the shape properties, provided in the attached property, the geometric parameters take precedence.  For geometry editing applications, like CAD: this value should be write-only.Note: new property in IFC4"
							}
						},
						{
							"name":"Slope",
							"value_type":0,
							"metadata":{
								"name":"Slope",
								"is_null":1,
								"is_optional":1,
								"data_type":2,
								"special_type":"",
								"float_value":0.0,
								"ifc_class":"Pset_BeamCommon",
								"description":"Slope angle - relative to horizontal (0.0 degrees).The shape information is provided in addition to the shape representation and the geometric parameters used within. In cases of inconsistency between the geometric parameters and the shape properties, provided in the attached property, the geometric parameters take precedence.  For geometry editing applications, like CAD: this value should be write-only."
							}
						},
						{
							"name":"Span",
							"value_type":0,
							"metadata":{
								"name":"Span",
								"is_null":1,
								"is_optional":1,
								"data_type":2,
								"special_type":"LENGTH",
								"float_value":0.0,
								"ifc_class":"Pset_BeamCommon",
								"description":"Clear span for this object.The shape information is provided in addition to the shape representation and the geometric parameters used within. In cases of inconsistency between the geometric parameters and the shape properties, provided in the attached property, the geometric parameters take precedence. For geometry editing applications, like CAD: this value should be write-only."
							}
						},
						{
							"name":"Status",
							"value_type":1,
							"metadata":{
								"name":"Status",
								"is_null":0,
								"is_optional":1,
								"special_type":"",
								"data_type":0,
								"string_value":"DEMOLISH"
							},
							"enumerated_value":{
								"enumerated_values":[
									{
										"string_value":"DEMOLISH",
										"is_null":0,
										"is_selected":1
									},
									{
										"string_value":"EXISTING",
										"is_null":0,
										"is_selected":0
									},
									{
										"string_value":"NEW",
										"is_null":0,
										"is_selected":0
									},
									{
										"string_value":"TEMPORARY",
										"is_null":0,
										"is_selected":0
									},
									{
										"string_value":"OTHER",
										"is_null":0,
										"is_selected":0
									},
									{
										"string_value":"NOTKNOWN",
										"is_null":0,
										"is_selected":0
									},
									{
										"string_value":"UNSET",
										"is_null":0,
										"is_selected":0
									}
								]
							}
						},
						{
							"name":"ThermalTransmittance",
							"value_type":0,
							"metadata":{
								"name":"ThermalTransmittance",
								"is_null":1,
								"is_optional":1,
								"data_type":2,
								"special_type":"",
								"float_value":0.0,
								"ifc_class":"Pset_BeamCommon",
								"description":"Thermal transmittance coefficient (U-Value) of an element, within the direction of the thermal flow (including all materials)."
							}
						}
					],
					"active_pset_id":0,
					"active_pset_name":"",
					"active_pset_type":0,
					"active_pset_has_template":1
				}
			},
			"mesh":11,
			"name":"IfcBeam/Beam.003",
			"rotation":[
				0,
				-0.7071068286895752,
				0.7071068286895752,
				8.429372400087232e-08
			],
			"translation":[
				4.5,
				0,
				-0.5999999642372131
			]
		},
		{
			"extras":{
				"BIMObjectProperties":{
					"ifc_definition_id":511,
					"location_checksum":"b'\\x00\\x00\\x00`33\\xe3?\\x00\\x00\\x00 33\\xe3?\\x00\\x00\\x00\\x00\\x00\\x00\\x00\\x00'",
					"rotation_checksum":"b'\\x00\\x00\\x00\\x00\\x00\\x00\\xf0?\\x00\\x00\\x00\\x00\\x00\\x00\\x00\\x00\\x00\\x00\\x00\\x00\\x00\\x00\\x00\\x00\\x00\\x00\\x00\\x00\\x00\\x00\\x00\\x00\\x00\\x00\\x00\\x00\\x00\\x00\\xf0?\\x00\\x00\\x00\\x00\\x00\\x00\\x00\\x00\\x00\\x00\\x00\\x00\\x00\\x00\\x00\\x00\\x00\\x00\\x00\\x00\\x00\\x00\\x00\\x00\\x00\\x00\\x00\\x00\\x00\\x00\\xf0?'"
				}
			},
			"mesh":12,
			"name":"IfcSlab/Slab",
			"translation":[
				0.6000000834465027,
				0,
				-0.5999999642372131
			]
		},
		{
			"extras":{
				"BIMObjectProperties":{
					"ifc_definition_id":96,
					"location_checksum":"b'\\x00\\x00\\x00\\x00\\x00\\x00\\x00\\x00\\x00\\x00\\x00\\x00\\x00\\x00\\x00\\x00\\x00\\x00\\x00\\x00\\x00\\x00\\x08@'",
					"rotation_checksum":"b'\\x00\\x00\\x00\\x00\\x00\\x00\\xf0?\\x00\\x00\\x00\\x00\\x00\\x00\\x00\\x00\\x00\\x00\\x00\\x00\\x00\\x00\\x00\\x00\\x00\\x00\\x00\\x00\\x00\\x00\\x00\\x00\\x00\\x00\\x00\\x00\\x00\\x00\\xf0?\\x00\\x00\\x00\\x00\\x00\\x00\\x00\\x00\\x00\\x00\\x00\\x00\\x00\\x00\\x00\\x00\\x00\\x00\\x00\\x00\\x00\\x00\\x00\\x00\\x00\\x00\\x00\\x00\\x00\\x00\\xf0?'",
					"collection":{
						"name":"IfcBuildingStorey/1",
						"type":"Collection"
					}
				}
			},
			"name":"IfcBuildingStorey/1",
			"translation":[
				0,
				3,
				0
			]
		},
		{
			"extras":{
				"BIMObjectProperties":{
					"ifc_definition_id":37,
					"blender_offset_type":3,
					"location_checksum":"b'\\x00\\x00\\x00\\x00\\x00\\x00\\x00\\x00\\x00\\x00\\x00\\x00\\x00\\x00\\x00\\x00\\x00\\x00\\x00\\x00\\x00\\x00\\x00\\x00'",
					"rotation_checksum":"b'\\x00\\x00\\x00\\x00\\x00\\x00\\xf0?\\x00\\x00\\x00\\x00\\x00\\x00\\x00\\x00\\x00\\x00\\x00\\x00\\x00\\x00\\x00\\x00\\x00\\x00\\x00\\x00\\x00\\x00\\x00\\x00\\x00\\x00\\x00\\x00\\x00\\x00\\xf0?\\x00\\x00\\x00\\x00\\x00\\x00\\x00\\x00\\x00\\x00\\x00\\x00\\x00\\x00\\x00\\x00\\x00\\x00\\x00\\x00\\x00\\x00\\x00\\x00\\x00\\x00\\x00\\x00\\x00\\x00\\xf0?'",
					"collection":{
						"name":"IfcBuilding/My Building",
						"type":"Collection"
					}
				}
			},
			"name":"IfcBuilding/My Building"
		},
		{
			"extras":{
				"BIMObjectProperties":{
					"ifc_definition_id":43,
					"blender_offset_type":3,
					"location_checksum":"b'\\x00\\x00\\x00\\x00\\x00\\x00\\x00\\x00\\x00\\x00\\x00\\x00\\x00\\x00\\x00\\x00\\x00\\x00\\x00\\x00\\x00\\x00\\x00\\x00'",
					"rotation_checksum":"b'\\x00\\x00\\x00\\x00\\x00\\x00\\xf0?\\x00\\x00\\x00\\x00\\x00\\x00\\x00\\x00\\x00\\x00\\x00\\x00\\x00\\x00\\x00\\x00\\x00\\x00\\x00\\x00\\x00\\x00\\x00\\x00\\x00\\x00\\x00\\x00\\x00\\x00\\xf0?\\x00\\x00\\x00\\x00\\x00\\x00\\x00\\x00\\x00\\x00\\x00\\x00\\x00\\x00\\x00\\x00\\x00\\x00\\x00\\x00\\x00\\x00\\x00\\x00\\x00\\x00\\x00\\x00\\x00\\x00\\xf0?'",
					"collection":{
						"name":"IfcBuildingStorey/0",
						"type":"Collection"
					}
				}
			},
			"name":"IfcBuildingStorey/0"
		},
		{
			"extras":{
				"BIMObjectProperties":{
					"ifc_definition_id":31,
					"blender_offset_type":3,
					"location_checksum":"b'\\x00\\x00\\x00\\x00\\x00\\x00\\x00\\x00\\x00\\x00\\x00\\x00\\x00\\x00\\x00\\x00\\x00\\x00\\x00\\x00\\x00\\x00\\x00\\x00'",
					"rotation_checksum":"b'\\x00\\x00\\x00\\x00\\x00\\x00\\xf0?\\x00\\x00\\x00\\x00\\x00\\x00\\x00\\x00\\x00\\x00\\x00\\x00\\x00\\x00\\x00\\x00\\x00\\x00\\x00\\x00\\x00\\x00\\x00\\x00\\x00\\x00\\x00\\x00\\x00\\x00\\xf0?\\x00\\x00\\x00\\x00\\x00\\x00\\x00\\x00\\x00\\x00\\x00\\x00\\x00\\x00\\x00\\x00\\x00\\x00\\x00\\x00\\x00\\x00\\x00\\x00\\x00\\x00\\x00\\x00\\x00\\x00\\xf0?'",
					"collection":{
						"name":"IfcSite/My Site",
						"type":"Collection"
					}
				}
			},
			"name":"IfcSite/My Site"
		},
		{
			"extras":{
				"BIMObjectProperties":{
					"ifc_definition_id":254
				}
			},
			"name":"IfcColumnType/C20"
		},
		{
			"extras":{
				"BIMObjectProperties":{
					"ifc_definition_id":505
				}
			},
			"name":"IfcSlabType/S200"
		},
		{
			"extras":{
				"BIMObjectProperties":{
					"ifc_definition_id":128
				}
			},
			"name":"IfcFootingType/S500"
		},
		{
			"extras":{
				"BIMObjectProperties":{
					"ifc_definition_id":392
				}
			},
			"name":"IfcBeamType/B20x40"
		}
	],
	"meshes":[
		{
			"extras":{
				"has_cartesian_point_offset":false,
				"ios_edges":[
					[
						0,
						1
					],
					[
						2,
						4
					],
					[
						1,
						2
					],
					[
						0,
						4
					],
					[
						3,
						7
					],
					[
						0,
						3
					],
					[
						6,
						7
					],
					[
						4,
						5
					],
					[
						1,
						7
					],
					[
						2,
						6
					],
					[
						5,
						6
					],
					[
						3,
						5
					]
				],
				"ios_item_ids":[
					320,
					320,
					320,
					320,
					320,
					320,
					320,
					320,
					320,
					320,
					320,
					320
				],
				"ios_material_ids":[
					-1,
					-1,
					-1,
					-1,
					-1,
					-1,
					-1,
					-1,
					-1,
					-1,
					-1,
					-1
				],
				"BIMMeshProperties":{
					"ifc_definition_id":321,
					"material_checksum":"[]"
				}
			},
			"name":"15/321",
			"primitives":[
				{
					"attributes":{
						"POSITION":0,
						"NORMAL":1
					},
					"indices":2
				}
			]
		},
		{
			"extras":{
				"has_cartesian_point_offset":false,
				"ios_edges":[
					[
						0,
						1
					],
					[
						0,
						7
					],
					[
						2,
						4
					],
					[
						1,
						2
					],
					[
						3,
						4
					],
					[
						3,
						7
					],
					[
						5,
						7
					],
					[
						0,
						6
					],
					[
						4,
						5
					],
					[
						2,
						6
					],
					[
						5,
						6
					],
					[
						1,
						3
					]
				],
				"ios_item_ids":[
					150,
					150,
					150,
					150,
					150,
					150,
					150,
					150,
					150,
					150,
					150,
					150
				],
				"ios_material_ids":[
					-1,
					-1,
					-1,
					-1,
					-1,
					-1,
					-1,
					-1,
					-1,
					-1,
					-1,
					-1
				],
				"BIMMeshProperties":{
					"ifc_definition_id":151,
					"material_checksum":"[]"
				}
			},
			"name":"15/151",
			"primitives":[
				{
					"attributes":{
						"POSITION":3,
						"NORMAL":4
					},
					"indices":5
				}
			]
		},
		{
			"extras":{
				"has_cartesian_point_offset":false,
				"ios_edges":[
					[
						0,
						1
					],
					[
						0,
						7
					],
					[
						2,
						4
					],
					[
						1,
						2
					],
					[
						3,
						4
					],
					[
						3,
						7
					],
					[
						5,
						7
					],
					[
						0,
						6
					],
					[
						4,
						5
					],
					[
						2,
						6
					],
					[
						5,
						6
					],
					[
						1,
						3
					]
				],
				"ios_item_ids":[
					195,
					195,
					195,
					195,
					195,
					195,
					195,
					195,
					195,
					195,
					195,
					195
				],
				"ios_material_ids":[
					-1,
					-1,
					-1,
					-1,
					-1,
					-1,
					-1,
					-1,
					-1,
					-1,
					-1,
					-1
				],
				"BIMMeshProperties":{
					"ifc_definition_id":194,
					"material_checksum":"[]"
				}
			},
			"name":"15/194",
			"primitives":[
				{
					"attributes":{
						"POSITION":6,
						"NORMAL":7
					},
					"indices":5
				}
			]
		},
		{
			"extras":{
				"has_cartesian_point_offset":false,
				"ios_edges":[
					[
						0,
						1
					],
					[
						0,
						7
					],
					[
						2,
						4
					],
					[
						1,
						2
					],
					[
						3,
						4
					],
					[
						3,
						7
					],
					[
						5,
						7
					],
					[
						0,
						6
					],
					[
						4,
						5
					],
					[
						2,
						6
					],
					[
						5,
						6
					],
					[
						1,
						3
					]
				],
				"ios_item_ids":[
					217,
					217,
					217,
					217,
					217,
					217,
					217,
					217,
					217,
					217,
					217,
					217
				],
				"ios_material_ids":[
					-1,
					-1,
					-1,
					-1,
					-1,
					-1,
					-1,
					-1,
					-1,
					-1,
					-1,
					-1
				],
				"BIMMeshProperties":{
					"ifc_definition_id":216,
					"material_checksum":"[]"
				}
			},
			"name":"15/216",
			"primitives":[
				{
					"attributes":{
						"POSITION":8,
						"NORMAL":9
					},
					"indices":5
				}
			]
		},
		{
			"extras":{
				"has_cartesian_point_offset":false,
				"ios_edges":[
					[
						0,
						1
					],
					[
						0,
						7
					],
					[
						2,
						4
					],
					[
						1,
						2
					],
					[
						3,
						4
					],
					[
						3,
						7
					],
					[
						5,
						7
					],
					[
						0,
						6
					],
					[
						4,
						5
					],
					[
						2,
						6
					],
					[
						5,
						6
					],
					[
						1,
						3
					]
				],
				"ios_item_ids":[
					244,
					244,
					244,
					244,
					244,
					244,
					244,
					244,
					244,
					244,
					244,
					244
				],
				"ios_material_ids":[
					-1,
					-1,
					-1,
					-1,
					-1,
					-1,
					-1,
					-1,
					-1,
					-1,
					-1,
					-1
				],
				"BIMMeshProperties":{
					"ifc_definition_id":243,
					"material_checksum":"[]"
				}
			},
			"name":"15/243",
			"primitives":[
				{
					"attributes":{
						"POSITION":10,
						"NORMAL":11
					},
					"indices":5
				}
			]
		},
		{
			"extras":{
				"has_cartesian_point_offset":false,
				"ios_edges":[
					[
						0,
						1
					],
					[
						2,
						4
					],
					[
						1,
						2
					],
					[
						0,
						4
					],
					[
						3,
						7
					],
					[
						0,
						3
					],
					[
						6,
						7
					],
					[
						4,
						5
					],
					[
						1,
						7
					],
					[
						2,
						6
					],
					[
						5,
						6
					],
					[
						3,
						5
					]
				],
				"ios_item_ids":[
					490,
					490,
					490,
					490,
					490,
					490,
					490,
					490,
					490,
					490,
					490,
					490
				],
				"ios_material_ids":[
					-1,
					-1,
					-1,
					-1,
					-1,
					-1,
					-1,
					-1,
					-1,
					-1,
					-1,
					-1
				],
				"BIMMeshProperties":{
					"ifc_definition_id":491,
					"material_checksum":"[]"
				}
			},
			"name":"15/491",
			"primitives":[
				{
					"attributes":{
						"POSITION":12,
						"NORMAL":13
					},
					"indices":2
				}
			]
		},
		{
			"extras":{
				"has_cartesian_point_offset":false,
				"ios_edges":[
					[
						0,
						1
					],
					[
						2,
						4
					],
					[
						1,
						2
					],
					[
						0,
						4
					],
					[
						3,
						7
					],
					[
						0,
						3
					],
					[
						6,
						7
					],
					[
						4,
						5
					],
					[
						1,
						7
					],
					[
						2,
						6
					],
					[
						5,
						6
					],
					[
						3,
						5
					]
				],
				"ios_item_ids":[
					342,
					342,
					342,
					342,
					342,
					342,
					342,
					342,
					342,
					342,
					342,
					342
				],
				"ios_material_ids":[
					-1,
					-1,
					-1,
					-1,
					-1,
					-1,
					-1,
					-1,
					-1,
					-1,
					-1,
					-1
				],
				"BIMMeshProperties":{
					"ifc_definition_id":343,
					"material_checksum":"[]"
				}
			},
			"name":"15/343",
			"primitives":[
				{
					"attributes":{
						"POSITION":14,
						"NORMAL":15
					},
					"indices":2
				}
			]
		},
		{
			"extras":{
				"has_cartesian_point_offset":false,
				"ios_edges":[
					[
						0,
						1
					],
					[
						2,
						4
					],
					[
						1,
						2
					],
					[
						0,
						4
					],
					[
						3,
						7
					],
					[
						0,
						3
					],
					[
						6,
						7
					],
					[
						4,
						5
					],
					[
						1,
						7
					],
					[
						2,
						6
					],
					[
						5,
						6
					],
					[
						3,
						5
					]
				],
				"ios_item_ids":[
					364,
					364,
					364,
					364,
					364,
					364,
					364,
					364,
					364,
					364,
					364,
					364
				],
				"ios_material_ids":[
					-1,
					-1,
					-1,
					-1,
					-1,
					-1,
					-1,
					-1,
					-1,
					-1,
					-1,
					-1
				],
				"BIMMeshProperties":{
					"ifc_definition_id":365,
					"material_checksum":"[]"
				}
			},
			"name":"15/365",
			"primitives":[
				{
					"attributes":{
						"POSITION":16,
						"NORMAL":17
					},
					"indices":2
				}
			]
		},
		{
			"extras":{
				"has_cartesian_point_offset":false,
				"ios_edges":[
					[
						0,
						1
					],
					[
						2,
						4
					],
					[
						1,
						2
					],
					[
						0,
						4
					],
					[
						3,
						7
					],
					[
						0,
						3
					],
					[
						6,
						7
					],
					[
						4,
						5
					],
					[
						1,
						7
					],
					[
						2,
						6
					],
					[
						5,
						6
					],
					[
						3,
						5
					]
				],
				"ios_item_ids":[
					386,
					386,
					386,
					386,
					386,
					386,
					386,
					386,
					386,
					386,
					386,
					386
				],
				"ios_material_ids":[
					-1,
					-1,
					-1,
					-1,
					-1,
					-1,
					-1,
					-1,
					-1,
					-1,
					-1,
					-1
				],
				"BIMMeshProperties":{
					"ifc_definition_id":387,
					"material_checksum":"[]"
				}
			},
			"name":"15/387",
			"primitives":[
				{
					"attributes":{
						"POSITION":18,
						"NORMAL":19
					},
					"indices":2
				}
			]
		},
		{
			"extras":{
				"has_cartesian_point_offset":false,
				"ios_edges":[
					[
						0,
						1
					],
					[
						2,
						4
					],
					[
						1,
						2
					],
					[
						0,
						4
					],
					[
						3,
						7
					],
					[
						0,
						3
					],
					[
						6,
						7
					],
					[
						4,
						5
					],
					[
						1,
						7
					],
					[
						2,
						6
					],
					[
						5,
						6
					],
					[
						3,
						5
					]
				],
				"ios_item_ids":[
					414,
					414,
					414,
					414,
					414,
					414,
					414,
					414,
					414,
					414,
					414,
					414
				],
				"ios_material_ids":[
					-1,
					-1,
					-1,
					-1,
					-1,
					-1,
					-1,
					-1,
					-1,
					-1,
					-1,
					-1
				],
				"BIMMeshProperties":{
					"ifc_definition_id":415,
					"material_checksum":"[]"
				}
			},
			"name":"15/415",
			"primitives":[
				{
					"attributes":{
						"POSITION":20,
						"NORMAL":21
					},
					"indices":2
				}
			]
		},
		{
			"extras":{
				"has_cartesian_point_offset":false,
				"ios_edges":[
					[
						0,
						1
					],
					[
						2,
						4
					],
					[
						1,
						2
					],
					[
						0,
						4
					],
					[
						3,
						7
					],
					[
						0,
						3
					],
					[
						6,
						7
					],
					[
						4,
						5
					],
					[
						1,
						7
					],
					[
						2,
						6
					],
					[
						5,
						6
					],
					[
						3,
						5
					]
				],
				"ios_item_ids":[
					436,
					436,
					436,
					436,
					436,
					436,
					436,
					436,
					436,
					436,
					436,
					436
				],
				"ios_material_ids":[
					-1,
					-1,
					-1,
					-1,
					-1,
					-1,
					-1,
					-1,
					-1,
					-1,
					-1,
					-1
				],
				"BIMMeshProperties":{
					"ifc_definition_id":437,
					"material_checksum":"[]"
				}
			},
			"name":"15/437",
			"primitives":[
				{
					"attributes":{
						"POSITION":22,
						"NORMAL":23
					},
					"indices":2
				}
			]
		},
		{
			"extras":{
				"has_cartesian_point_offset":false,
				"ios_edges":[
					[
						0,
						1
					],
					[
						2,
						4
					],
					[
						1,
						2
					],
					[
						0,
						4
					],
					[
						3,
						7
					],
					[
						0,
						3
					],
					[
						6,
						7
					],
					[
						4,
						5
					],
					[
						1,
						7
					],
					[
						2,
						6
					],
					[
						5,
						6
					],
					[
						3,
						5
					]
				],
				"ios_item_ids":[
					471,
					471,
					471,
					471,
					471,
					471,
					471,
					471,
					471,
					471,
					471,
					471
				],
				"ios_material_ids":[
					-1,
					-1,
					-1,
					-1,
					-1,
					-1,
					-1,
					-1,
					-1,
					-1,
					-1,
					-1
				],
				"BIMMeshProperties":{
					"ifc_definition_id":472,
					"material_checksum":"[]"
				}
			},
			"name":"15/472",
			"primitives":[
				{
					"attributes":{
						"POSITION":24,
						"NORMAL":25
					},
					"indices":2
				}
			]
		},
		{
			"extras":{
				"has_cartesian_point_offset":false,
				"ios_edges":[
					[
						0,
						1
					],
					[
						2,
						4
					],
					[
						1,
						2
					],
					[
						0,
						4
					],
					[
						3,
						7
					],
					[
						0,
						3
					],
					[
						6,
						7
					],
					[
						4,
						5
					],
					[
						1,
						7
					],
					[
						2,
						6
					],
					[
						5,
						6
					],
					[
						3,
						5
					]
				],
				"ios_item_ids":[
					524,
					524,
					524,
					524,
					524,
					524,
					524,
					524,
					524,
					524,
					524,
					524
				],
				"ios_material_ids":[
					-1,
					-1,
					-1,
					-1,
					-1,
					-1,
					-1,
					-1,
					-1,
					-1,
					-1,
					-1
				],
				"BIMMeshProperties":{
					"ifc_definition_id":525,
					"material_checksum":"[]"
				}
			},
			"name":"15/525",
			"primitives":[
				{
					"attributes":{
						"POSITION":26,
						"NORMAL":27
					},
					"indices":28
				}
			]
		}
	],
	"accessors":[
		{
			"bufferView":0,
			"componentType":5126,
			"count":24,
			"max":[
				0.10000000149011612,
				1,
				0.10000000149011612
			],
			"min":[
				-0.10000000149011612,
				0,
				-0.10000000149011612
			],
			"type":"VEC3"
		},
		{
			"bufferView":1,
			"componentType":5126,
			"count":24,
			"type":"VEC3"
		},
		{
			"bufferView":2,
			"componentType":5123,
			"count":36,
			"type":"SCALAR"
		},
		{
			"bufferView":3,
			"componentType":5126,
			"count":24,
			"max":[
				1.0000001192092896,
				0,
				5.960464477539063e-08
			],
			"min":[
				0,
				-0.5,
				-1
			],
			"type":"VEC3"
		},
		{
			"bufferView":4,
			"componentType":5126,
			"count":24,
			"type":"VEC3"
		},
		{
			"bufferView":5,
			"componentType":5123,
			"count":36,
			"type":"SCALAR"
		},
		{
			"bufferView":6,
			"componentType":5126,
			"count":24,
			"max":[
				1.0000001192092896,
				0,
				5.960464477539063e-08
			],
			"min":[
				0,
				-0.5,
				-1
			],
			"type":"VEC3"
		},
		{
			"bufferView":7,
			"componentType":5126,
			"count":24,
			"type":"VEC3"
		},
		{
			"bufferView":8,
			"componentType":5126,
			"count":24,
			"max":[
				1.0000001192092896,
				0,
				5.960464477539063e-08
			],
			"min":[
				0,
				-0.5,
				-1
			],
			"type":"VEC3"
		},
		{
			"bufferView":9,
			"componentType":5126,
			"count":24,
			"type":"VEC3"
		},
		{
			"bufferView":10,
			"componentType":5126,
			"count":24,
			"max":[
				1.0000001192092896,
				0,
				5.960464477539063e-08
			],
			"min":[
				0,
				-0.5,
				-1
			],
			"type":"VEC3"
		},
		{
			"bufferView":11,
			"componentType":5126,
			"count":24,
			"type":"VEC3"
		},
		{
			"bufferView":12,
			"componentType":5126,
			"count":24,
			"max":[
				0.10000000149011612,
				3.799999952316284,
				0.4000000059604645
			],
			"min":[
				-0.10000000149011612,
				0,
				0
			],
			"type":"VEC3"
		},
		{
			"bufferView":13,
			"componentType":5126,
			"count":24,
			"type":"VEC3"
		},
		{
			"bufferView":14,
			"componentType":5126,
			"count":24,
			"max":[
				0.10000000149011612,
				1,
				0.10000000149011612
			],
			"min":[
				-0.10000000149011612,
				0,
				-0.10000000149011612
			],
			"type":"VEC3"
		},
		{
			"bufferView":15,
			"componentType":5126,
			"count":24,
			"type":"VEC3"
		},
		{
			"bufferView":16,
			"componentType":5126,
			"count":24,
			"max":[
				0.10000000149011612,
				1,
				0.10000000149011612
			],
			"min":[
				-0.10000000149011612,
				0,
				-0.10000000149011612
			],
			"type":"VEC3"
		},
		{
			"bufferView":17,
			"componentType":5126,
			"count":24,
			"type":"VEC3"
		},
		{
			"bufferView":18,
			"componentType":5126,
			"count":24,
			"max":[
				0.10000000149011612,
				1,
				0.10000000149011612
			],
			"min":[
				-0.10000000149011612,
				0,
				-0.10000000149011612
			],
			"type":"VEC3"
		},
		{
			"bufferView":19,
			"componentType":5126,
			"count":24,
			"type":"VEC3"
		},
		{
			"bufferView":20,
			"componentType":5126,
			"count":24,
			"max":[
				0.10000000149011612,
				3.8000001907348633,
				0.4000000059604645
			],
			"min":[
				-0.10000000149011612,
				0,
				0
			],
			"type":"VEC3"
		},
		{
			"bufferView":21,
			"componentType":5126,
			"count":24,
			"type":"VEC3"
		},
		{
			"bufferView":22,
			"componentType":5126,
			"count":24,
			"max":[
				0.10000000149011612,
				3.799999952316284,
				0.4000000059604645
			],
			"min":[
				-0.10000000149011612,
				0,
				0
			],
			"type":"VEC3"
		},
		{
			"bufferView":23,
			"componentType":5126,
			"count":24,
			"type":"VEC3"
		},
		{
			"bufferView":24,
			"componentType":5126,
			"count":24,
			"max":[
				0.10000000149011612,
				3.8000001907348633,
				0.4000000059604645
			],
			"min":[
				-0.10000000149011612,
				0,
				0
			],
			"type":"VEC3"
		},
		{
			"bufferView":25,
			"componentType":5126,
			"count":24,
			"type":"VEC3"
		},
		{
			"bufferView":26,
			"componentType":5126,
			"count":24,
			"max":[
				3.799999952316284,
				0,
				0
			],
			"min":[
				-5.960464477539062e-07,
				-0.20000000298023224,
				-3.8000001907348633
			],
			"type":"VEC3"
		},
		{
			"bufferView":27,
			"componentType":5126,
			"count":24,
			"type":"VEC3"
		},
		{
			"bufferView":28,
			"componentType":5123,
			"count":36,
			"type":"SCALAR"
		}
	],
	"bufferViews":[
		{
			"buffer":0,
			"byteLength":288,
			"byteOffset":0,
			"target":34962
		},
		{
			"buffer":0,
			"byteLength":288,
			"byteOffset":288,
			"target":34962
		},
		{
			"buffer":0,
			"byteLength":72,
			"byteOffset":576,
			"target":34963
		},
		{
			"buffer":0,
			"byteLength":288,
			"byteOffset":648,
			"target":34962
		},
		{
			"buffer":0,
			"byteLength":288,
			"byteOffset":936,
			"target":34962
		},
		{
			"buffer":0,
			"byteLength":72,
			"byteOffset":1224,
			"target":34963
		},
		{
			"buffer":0,
			"byteLength":288,
			"byteOffset":1296,
			"target":34962
		},
		{
			"buffer":0,
			"byteLength":288,
			"byteOffset":1584,
			"target":34962
		},
		{
			"buffer":0,
			"byteLength":288,
			"byteOffset":1872,
			"target":34962
		},
		{
			"buffer":0,
			"byteLength":288,
			"byteOffset":2160,
			"target":34962
		},
		{
			"buffer":0,
			"byteLength":288,
			"byteOffset":2448,
			"target":34962
		},
		{
			"buffer":0,
			"byteLength":288,
			"byteOffset":2736,
			"target":34962
		},
		{
			"buffer":0,
			"byteLength":288,
			"byteOffset":3024,
			"target":34962
		},
		{
			"buffer":0,
			"byteLength":288,
			"byteOffset":3312,
			"target":34962
		},
		{
			"buffer":0,
			"byteLength":288,
			"byteOffset":3600,
			"target":34962
		},
		{
			"buffer":0,
			"byteLength":288,
			"byteOffset":3888,
			"target":34962
		},
		{
			"buffer":0,
			"byteLength":288,
			"byteOffset":4176,
			"target":34962
		},
		{
			"buffer":0,
			"byteLength":288,
			"byteOffset":4464,
			"target":34962
		},
		{
			"buffer":0,
			"byteLength":288,
			"byteOffset":4752,
			"target":34962
		},
		{
			"buffer":0,
			"byteLength":288,
			"byteOffset":5040,
			"target":34962
		},
		{
			"buffer":0,
			"byteLength":288,
			"byteOffset":5328,
			"target":34962
		},
		{
			"buffer":0,
			"byteLength":288,
			"byteOffset":5616,
			"target":34962
		},
		{
			"buffer":0,
			"byteLength":288,
			"byteOffset":5904,
			"target":34962
		},
		{
			"buffer":0,
			"byteLength":288,
			"byteOffset":6192,
			"target":34962
		},
		{
			"buffer":0,
			"byteLength":288,
			"byteOffset":6480,
			"target":34962
		},
		{
			"buffer":0,
			"byteLength":288,
			"byteOffset":6768,
			"target":34962
		},
		{
			"buffer":0,
			"byteLength":288,
			"byteOffset":7056,
			"target":34962
		},
		{
			"buffer":0,
			"byteLength":288,
			"byteOffset":7344,
			"target":34962
		},
		{
			"buffer":0,
			"byteLength":72,
			"byteOffset":7632,
			"target":34963
		}
	],
	"buffers":[
		{
			"byteLength":7704,
			"uri":"with_custom_prop.bin"
		}
	]
}
